<svg xmlns="http://www.w3.org/2000/svg" class="ionicon" viewBox="0 0 512 512">

<g transform="translate(0.00000,512.000000) scale(0.100000,-0.100000)">

<path d="M980 4674 c-46 -20 -77 -50 -103 -99 -22 -40 -22 -40 -25 -955 -2
-553 1 -967 7 -1046 23 -299 115 -564 282 -814 65 -98 245 -292 329 -356 l48
-37 61 -246 c34 -135 64 -253 66 -261 3 -10 -12 -24 -45 -42 -155 -86 -131
-329 38 -378 25 -8 287 -10 838 -8 l801 3 39 27 c21 15 50 44 64 65 21 31 25
48 25 113 0 65 -4 82 -25 113 -33 50 -89 87 -139 94 l-41 6 0 221 0 222 78 18
c485 112 861 502 963 999 27 132 38 427 19 507 -17 71 -84 141 -152 158 -34 9
-331 12 -1117 12 l-1071 0 0 765 c0 837 2 805 -58 868 -15 16 -44 37 -64 48
-35 18 -62 19 -410 19 -311 -1 -379 -3 -408 -16z"/>
<path d="M2288 3618 c-21 -5 -58 -28 -82 -50 -113 -98 -89 -275 45 -342 l53
-26 896 0 896 0 53 26 c127 64 155 219 59 328 -69 80 -23 76 -1012 75 -538 -1
-885 -5 -908 -11z"/>
</g>
</svg>
